HIERARCHY
ROOT Hips
{
	OFFSET 0.000000 0.000000 0.000000
	CHANNELS 6 Xposition Yposition Zposition Xrotation Yrotation Zrotation
	JOINT LeftUpLeg_virtual
	{
		OFFSET 0.000000 0.000000 0.000000
		CHANNELS 3 Xrotation Yrotation Zrotation
		JOINT LeftUpLeg
		{
			OFFSET 13.026900 -6.336304 -1.092800
			CHANNELS 3 Xrotation Yrotation Zrotation
			JOINT LeftLeg
			{
				OFFSET 0.524474 -46.096886 9.782700
				CHANNELS 3 Xrotation Yrotation Zrotation
				JOINT LeftFoot
				{
					OFFSET -0.524474 -53.427422 -12.948200
					CHANNELS 3 Xrotation Yrotation Zrotation
					JOINT LeftToeBase
					{
						OFFSET 0.192200 -14.009700 16.364100
						CHANNELS 3 Xrotation Yrotation Zrotation
						JOINT LeftToe_End
						{
							OFFSET -1.784700 -0.561700 9.474800
							CHANNELS 3 Xrotation Yrotation Zrotation
							End Site
							{
								OFFSET 0 0 0
							}
						}
					}
				}
			}
		}
	}
	JOINT RightUpLeg_virtual
	{
		OFFSET 0.000000 0.000000 0.000000
		CHANNELS 3 Xrotation Yrotation Zrotation
		JOINT RightUpLeg
		{
			OFFSET -12.883000 -6.336304 -1.092800
			CHANNELS 3 Xrotation Yrotation Zrotation
			JOINT RightLeg
			{
				OFFSET -0.524587 -46.096825 9.782800
				CHANNELS 3 Xrotation Yrotation Zrotation
				JOINT RightFoot
				{
					OFFSET 0.524587 -53.427383 -12.948300
					CHANNELS 3 Xrotation Yrotation Zrotation
					JOINT RightToeBase
					{
						OFFSET -0.192200 -14.009700 16.364100
						CHANNELS 3 Xrotation Yrotation Zrotation
						JOINT RightToe_End
						{
							OFFSET 1.784700 -0.561700 9.474800
							CHANNELS 3 Xrotation Yrotation Zrotation
							End Site
							{
								OFFSET 0 0 0
							}
						}
					}
				}
			}
		}
	}
	JOINT Spine_virtual
	{
		OFFSET 0.000000 0.000000 0.000000
		CHANNELS 3 Xrotation Yrotation Zrotation
		JOINT Spine
		{
			OFFSET 0.072000 7.257294 -0.789700
			CHANNELS 3 Xrotation Yrotation Zrotation
			JOINT Spine1
			{
				OFFSET 0.000000 12.508769 -0.658067
				CHANNELS 3 Xrotation Yrotation Zrotation
				JOINT Spine1_split
				{
					OFFSET 0.000000 12.508769 -0.658067
					CHANNELS 3 Xrotation Yrotation Zrotation
					JOINT Spine2
					{
						OFFSET 0.000000 12.508769 -0.658067
						CHANNELS 3 Xrotation Yrotation Zrotation
						JOINT Neck_virtual
						{
							OFFSET 0.000000 0.000000 0.000000
							CHANNELS 3 Xrotation Yrotation Zrotation
							JOINT Neck
							{
								OFFSET 0.000000 14.033295 7.520400
								CHANNELS 3 Xrotation Yrotation Zrotation
								JOINT Head
								{
									OFFSET 0.000000 8.198502 5.703100
									CHANNELS 3 Xrotation Yrotation Zrotation
									JOINT HeadTop_End
									{
										OFFSET 0.000000 17.760803 13.332701
										CHANNELS 3 Xrotation Yrotation Zrotation
										End Site
										{
											OFFSET 0 0 0
										}
									}
								}
							}
						}
						JOINT LeftShoulder_virtual
						{
							OFFSET 0.000000 0.000000 0.000000
							CHANNELS 3 Xrotation Yrotation Zrotation
							JOINT LeftShoulder
							{
								OFFSET 6.292450 5.785301 -0.669000
								CHANNELS 3 Xrotation Yrotation Zrotation
								JOINT LeftShoulder_split
								{
									OFFSET 6.292450 5.785301 -0.669000
									CHANNELS 3 Xrotation Yrotation Zrotation
									JOINT LeftArm
									{
										OFFSET 13.907140 -6.093903 1.965100
										CHANNELS 3 Xrotation Yrotation Zrotation
										JOINT LeftForeArm
										{
											OFFSET 34.140198 0.000000 0.000000
											CHANNELS 3 Xrotation Yrotation Zrotation
											JOINT LeftHand
											{
												OFFSET 40.960209 0.000000 0.000000
												CHANNELS 3 Xrotation Yrotation Zrotation
												End Site
												{
													OFFSET 0 0 0
												}
											}
										}
									}
								}
							}
						}
						JOINT RightShoulder_virtual
						{
							OFFSET 0.000000 0.000000 0.000000
							CHANNELS 3 Xrotation Yrotation Zrotation
							JOINT RightShoulder
							{
								OFFSET -6.292450 5.785301 -0.669000
								CHANNELS 3 Xrotation Yrotation Zrotation
								JOINT RightShoulder_split
								{
									OFFSET -6.292450 5.785301 -0.669000
									CHANNELS 3 Xrotation Yrotation Zrotation
									JOINT RightArm
									{
										OFFSET -13.907140 -6.093903 1.965100
										CHANNELS 3 Xrotation Yrotation Zrotation
										JOINT RightForeArm
										{
											OFFSET -34.140198 0.000000 0.000000
											CHANNELS 3 Xrotation Yrotation Zrotation
											JOINT RightHand
											{
												OFFSET -40.960209 0.000000 0.000000
												CHANNELS 3 Xrotation Yrotation Zrotation
												End Site
												{
													OFFSET 0 0 0
												}
											}
										}
									}
								}
							}
						}
					}
				}
			}
		}
	}
}
MOTION
Frames: 9
Frame Time: 0.03333333
28.120333 102.513016 10.639729 0.000000 0.000000 0.000000 157.818132 -65.386016 164.824336 -46.973731 45.972391 46.079714 36.195665 -5.932775 -4.266301 0.197097 10.614609 -5.895426 1.264334 4.245100 -6.841940 0.000000 0.000000 0.000000 159.277430 -65.411096 167.518599 -43.193840 -18.613054 -29.932085 38.649387 -2.605962 -1.144497 -14.096119 -4.304565 12.759382 -0.246776 1.934483 1.321949 0.000000 0.000000 0.000000 151.957202 -68.501121 158.421525 10.677581 -2.567793 -0.338823 5.321548 -3.079129 -2.760731 0.248878 -1.375206 0.962472 0.000000 0.000000 0.000000 -1.935690 -4.898639 -1.855564 4.531131 14.500973 -2.440606 -14.861534 11.216298 -3.200588 0.000000 0.000000 0.000000 -1.950950 -5.436294 -1.647666 -1.198853 -9.701952 -5.792629 0.086321 0.401450 0.958245 -24.443051 -14.586053 -47.470313 -14.524015 -28.148311 -14.762206 0.000000 0.000000 0.000000 -3.675224 -5.683159 -1.896813 -5.585172 18.825321 3.660761 0.660133 -3.212046 0.098707 -11.816961 -10.973355 60.688334 10.494566 37.643888 -2.121188 0.000000 0.000000 0.000000 
27.788343 102.282394 9.731682 0.000000 0.000000 0.000000 157.873908 -63.337130 165.027138 -51.711041 44.165690 49.274026 38.338644 -8.318838 -3.762132 3.496505 8.810436 -3.444515 0.909756 4.743080 -8.409106 0.000000 0.000000 0.000000 159.595361 -62.631810 168.023555 -45.101109 -17.928007 -30.006971 39.560247 -1.768685 -0.820493 -14.761109 -2.755351 12.800759 -0.450365 2.166438 1.254963 0.000000 0.000000 0.000000 152.331496 -65.923333 158.998854 10.942567 -2.426062 -0.674003 4.656214 -2.136719 -2.882048 0.356993 -1.646742 0.819080 0.000000 0.000000 0.000000 -2.696408 -3.870363 -1.941159 3.838912 16.182291 -3.478275 -15.307219 12.767820 -3.217148 0.000000 0.000000 0.000000 -2.669714 -4.358051 -1.758821 -1.017406 -9.237302 -5.797255 0.106514 0.232108 0.589736 -24.785097 -16.062286 -47.569997 -15.685470 -30.664141 -14.970653 0.000000 0.000000 0.000000 -4.310203 -4.586993 -2.001542 -5.738523 18.725657 3.644258 0.797478 -3.152856 -0.214964 -11.431435 -11.119875 60.970182 12.655020 37.440119 -3.460411 0.000000 0.000000 0.000000 
27.251984 102.183762 9.013283 0.000000 0.000000 0.000000 157.991851 -61.662135 165.147704 -55.869899 42.361895 51.533463 39.966230 -10.767856 -2.997396 6.672716 6.942055 -0.958659 0.076679 4.812541 -9.163653 0.000000 0.000000 0.000000 159.767714 -60.205638 168.236889 -46.073543 -16.937590 -29.850450 40.491639 -1.007772 -0.578763 -15.967987 -1.490551 12.829388 -0.271371 2.298858 1.323360 0.000000 0.000000 0.000000 152.658348 -63.679800 159.476311 11.246004 -2.270345 -0.860667 4.031709 -1.232727 -3.083062 0.470848 -2.000094 0.765287 0.000000 0.000000 0.000000 -3.428317 -2.876336 -2.088063 3.283404 17.721959 -4.307966 -15.557696 14.096186 -3.153282 0.000000 0.000000 0.000000 -3.341646 -3.320919 -1.934833 -0.873371 -8.923814 -5.672207 0.439432 0.131490 0.284764 -25.213302 -16.069854 -47.966892 -16.983151 -33.183241 -15.339707 0.000000 0.000000 0.000000 -4.887387 -3.524195 -2.175072 -5.803566 18.630637 3.487117 0.863851 -3.098553 -0.483137 -10.739937 -11.311165 61.127919 14.489785 37.338896 -4.598736 0.000000 0.000000 0.000000 
26.531120 102.143318 8.256100 0.000000 0.000000 0.000000 158.128687 -60.270532 165.100644 -59.474323 40.746713 53.168146 40.779566 -13.105870 -2.251370 9.017497 5.077945 1.145251 -0.366024 4.373814 -9.107988 0.000000 0.000000 0.000000 159.851671 -58.131508 168.219882 -46.105925 -15.655147 -29.454556 41.346198 -0.405935 -0.425143 -17.776370 -0.550746 12.619436 0.598799 2.364038 1.424742 0.000000 0.000000 0.000000 153.021400 -61.703048 159.899018 11.594570 -2.134163 -0.883741 3.451615 -0.401217 -3.338546 0.528426 -2.319862 0.786768 0.000000 0.000000 0.000000 -4.125935 -1.956022 -2.290372 2.875893 19.048964 -4.929992 -15.586230 15.184511 -2.985397 0.000000 0.000000 0.000000 -3.972351 -2.350507 -2.162456 -0.782500 -8.732667 -5.500830 0.985688 0.107473 0.059540 -25.605160 -14.770351 -48.439702 -18.301446 -35.502149 -15.794660 0.000000 0.000000 0.000000 -5.417203 -2.541204 -2.419548 -5.775584 18.512505 3.230928 0.853448 -3.194436 -0.711478 -9.819589 -11.474107 61.046161 15.879563 37.279842 -5.451699 0.000000 0.000000 0.000000 
25.569078 102.103142 7.492458 0.000000 0.000000 0.000000 158.382934 -58.973697 165.064663 -62.665749 39.065451 54.375016 41.244422 -15.358838 -1.679127 10.856397 3.233708 2.121094 0.031143 3.420497 -8.289782 0.000000 0.000000 0.000000 159.908990 -56.396011 168.064372 -45.501392 -14.033560 -28.899907 42.109390 0.179501 -0.364159 -19.771832 0.209150 12.407507 1.760695 2.390782 1.507726 0.000000 0.000000 0.000000 153.448655 -59.920970 160.217837 11.988245 -2.008297 -0.732226 2.914740 0.357350 -3.623769 0.471269 -2.507644 1.023830 0.000000 0.000000 0.000000 -4.753509 -1.112466 -2.522747 2.628258 20.123419 -5.383094 -15.419273 15.999903 -2.688646 0.000000 0.000000 0.000000 -4.580370 -1.451213 -2.419314 -0.749186 -8.668214 -5.354459 1.711596 0.182894 -0.068074 -25.805469 -12.577688 -48.879631 -19.526727 -37.441290 -16.214738 0.000000 0.000000 0.000000 -5.903682 -1.647464 -2.711293 -5.687704 18.380143 2.987823 0.742101 -3.424454 -0.890624 -8.668060 -11.509501 60.712643 16.691230 37.070585 -5.930906 0.000000 0.000000 0.000000 
24.383921 102.016403 6.582912 0.000000 0.000000 0.000000 158.900717 -57.588480 165.244379 -65.099141 37.065039 54.880867 41.927509 -17.469329 -1.251383 12.266678 1.558162 1.839959 0.462765 2.086284 -6.609340 0.000000 0.000000 0.000000 160.169603 -54.749881 168.074905 -44.685464 -12.251890 -28.355413 42.591000 0.840208 -0.375332 -21.243333 0.869738 12.532347 2.530989 2.384232 1.524387 0.000000 0.000000 0.000000 154.079601 -58.174538 160.575343 12.402983 -1.859593 -0.452569 2.414656 1.081233 -3.911614 0.392132 -2.712778 1.240896 0.000000 0.000000 0.000000 -5.286536 -0.324075 -2.756585 2.554493 20.899877 -5.769512 -15.123629 16.478624 -2.268757 0.000000 0.000000 0.000000 -5.170994 -0.600745 -2.682405 -0.757798 -8.705238 -5.306807 2.572394 0.172205 -0.124668 -25.657785 -10.017669 -49.151110 -20.533922 -38.944489 -16.519082 0.000000 0.000000 0.000000 -6.372786 -0.827499 -3.010705 -5.546670 18.229136 2.834294 0.497348 -3.708628 -0.938189 -7.244246 -11.477738 60.213117 16.829562 36.439551 -5.973009 0.000000 0.000000 0.000000 
22.921431 101.795113 5.562618 0.000000 0.000000 0.000000 159.779490 -55.933935 165.806312 -66.388387 34.964046 54.439405 43.066423 -18.825731 -1.000150 12.389749 0.606828 1.278095 -0.025516 0.552600 -4.223019 0.000000 0.000000 0.000000 160.816777 -53.065362 168.538538 -43.801791 -10.564672 -27.847588 42.838216 1.598725 -0.434529 -21.883025 1.472944 13.011396 2.768691 2.344433 1.486677 0.000000 0.000000 0.000000 154.967485 -56.413299 161.109669 12.799807 -1.640614 -0.116830 1.951671 1.814771 -4.171961 0.269406 -2.877996 1.429687 0.000000 0.000000 0.000000 -5.716558 0.447040 -2.958276 2.628924 21.363843 -6.174311 -14.802374 16.586163 -1.728745 0.000000 0.000000 0.000000 -5.742704 0.238210 -2.926031 -0.787946 -8.818259 -5.361285 3.469262 0.077912 -0.141280 -24.928744 -7.566916 -49.218978 -21.235089 -40.017392 -16.650785 0.000000 0.000000 0.000000 -6.836888 -0.045240 -3.287335 -5.354711 18.040510 2.785041 0.261603 -3.832694 -0.944458 -5.522147 -11.457899 59.697131 16.268143 35.320066 -5.618833 0.000000 0.000000 0.000000 
21.259026 101.367859 4.518299 0.000000 0.000000 0.000000 160.969705 -54.062839 166.776062 -66.616584 32.991299 53.038167 44.552672 -18.957822 -0.926815 10.704351 0.806774 1.337474 -1.333010 -1.075393 -1.664613 0.000000 0.000000 0.000000 161.775940 -51.315583 169.386424 -42.824081 -9.172614 -27.382785 42.885597 2.311587 -0.489326 -22.063586 1.972088 13.584042 2.709262 2.264083 1.438843 0.000000 0.000000 0.000000 156.079672 -54.563871 161.862164 13.178413 -1.327706 0.153269 1.516173 2.597982 -4.380558 0.180119 -3.105405 1.553233 0.000000 0.000000 0.000000 -6.059056 1.235832 -3.094683 2.846529 21.485866 -6.670678 -14.575321 16.354222 -1.089648 0.000000 0.000000 0.000000 -6.315510 1.087602 -3.128926 -0.811974 -8.976613 -5.470796 4.351240 -0.141458 -0.086087 -23.633699 -5.537064 -49.132979 -21.558100 -40.616847 -16.559749 0.000000 0.000000 0.000000 -7.307522 0.743691 -3.501569 -5.118858 17.794306 2.787518 -0.006745 -3.592454 -0.990960 -3.562913 -11.617204 59.276063 15.072366 33.944090 -4.997201 0.000000 0.000000 0.000000 
19.441839 100.685555 3.583950 0.000000 0.000000 0.000000 162.254873 -52.038726 167.941156 -66.039289 31.225009 50.900513 45.906456 -18.126714 -0.942336 7.628625 1.847957 1.932145 -2.543881 -2.638102 0.401354 0.000000 0.000000 0.000000 162.949353 -49.525999 170.532707 -41.707587 -8.278628 -27.112050 43.041069 2.752973 -0.485299 -22.048170 2.228936 13.962880 2.467459 2.146127 1.392502 0.000000 0.000000 0.000000 157.261417 -52.712962 162.846176 13.529757 -0.953773 0.224839 1.097502 3.425232 -4.518514 0.159142 -3.393859 1.579153 0.000000 0.000000 0.000000 -6.367047 2.045271 -3.140979 3.193131 21.283491 -7.324051 -14.507259 15.821628 -0.390583 0.000000 0.000000 0.000000 -6.893925 1.954914 -3.253869 -0.818486 -9.106997 -5.577306 5.121988 -0.286400 0.030807 -21.861214 -4.115896 -48.951566 -21.559583 -40.890191 -16.309384 0.000000 0.000000 0.000000 -7.777789 1.545254 -3.618230 -4.846030 17.443227 2.732650 -0.175607 -2.998755 -0.990693 -1.438474 -12.154010 59.089346 13.337363 32.754377 -4.270890 0.000000 0.000000 0.000000 
